<svg xmlns="http://www.w3.org/2000/svg" viewBox="0 0 64 64">
  <defs>
    <linearGradient id="files-bg" x1="0" y1="0" x2="1" y2="1">
      <stop offset="0" stop-color="#9AD0FF"/>
      <stop offset="1" stop-color="#3B7DD8"/>
    </linearGradient>
    <linearGradient id="files-sheen" x1="0.2" y1="0" x2="0.8" y2="1">
      <stop offset="0" stop-color="#fff" stop-opacity=".28"/>
      <stop offset=".45" stop-color="#fff" stop-opacity="0"/>
    </linearGradient>
    <filter id="files-soft" x="-20%" y="-20%" width="140%" height="140%">
      <feDropShadow dx="0" dy="1.2" stdDeviation="1.1" flood-color="#000" flood-opacity=".22"/>
    </filter>
  </defs>
  <rect width="64" height="64" rx="16" fill="url(#files-bg)"/>
  <rect width="64" height="64" rx="16" fill="url(#files-sheen)"/>
  <rect x=".6" y=".6" width="62.8" height="62.8" rx="15.4" fill="none" stroke="#fff" stroke-opacity=".18"/>
  <g filter="url(#files-soft)">
  <path d="M18 16h16l8 8v24a4 4 0 0 1-4 4H18a4 4 0 0 1-4-4V20a4 4 0 0 1 4-4z" fill="#fff"/>
  <path d="M34 16v8h8" fill="#CFE6FF"/>
  <rect x="20" y="32" width="18" height="2.3" rx="1.1" fill="#3B7DD8" opacity=".45"/>
  <rect x="20" y="38" width="13" height="2.3" rx="1.1" fill="#3B7DD8" opacity=".3"/>
</g>
</svg>
